<?xml version="1.0" standalone="no"?>
<!DOCTYPE svg PUBLIC "-//W3C//DTD SVG 20010904//EN"
 "http://www.w3.org/TR/2001/REC-SVG-20010904/DTD/svg10.dtd">
<svg version="1.0" xmlns="http://www.w3.org/2000/svg"
 width="2048.000000pt" height="2048.000000pt" viewBox="0 0 2048.000000 2048.000000"
 preserveAspectRatio="xMidYMid meet">

<g transform="translate(0.000000,2048.000000) scale(0.100000,-0.100000)"
fill="#000000" stroke="none">
<path d="M2688 17549 c-2 -5 -24 -13 -48 -15 -136 -16 -267 -147 -283 -284 -3
-24 -11 -46 -16 -48 -8 -3 -11 -2009 -11 -6818 0 -3911 4 -6813 9 -6810 9 6
21 -40 21 -80 0 -13 4 -24 9 -24 5 0 11 -10 15 -23 3 -12 21 -38 41 -57 32
-31 40 -34 97 -34 41 0 75 7 98 18 36 19 220 203 220 221 0 5 18 30 40 55 22
25 40 50 40 55 0 6 12 23 27 40 32 33 107 131 142 184 13 20 27 38 30 41 4 3
29 34 55 70 27 36 53 67 58 68 4 2 8 8 8 14 0 6 13 27 29 47 15 20 59 81 96
136 37 55 85 123 106 151 22 28 39 56 39 62 0 7 3 12 8 12 4 0 22 21 40 48 18
26 52 73 75 104 23 32 101 140 174 240 72 101 143 197 157 214 14 18 26 36 26
40 0 5 10 20 23 34 12 14 32 41 44 60 12 20 33 46 47 59 14 14 26 29 26 35 0
6 10 22 23 36 13 14 43 52 67 85 24 33 49 65 56 70 6 6 23 28 37 50 13 22 32
46 41 54 9 7 16 18 16 23 0 6 25 44 56 85 31 41 62 87 70 102 7 15 25 38 39
51 14 13 25 27 25 32 0 13 81 129 108 155 12 12 22 26 22 31 0 4 20 32 45 61
25 29 50 62 56 73 6 11 19 29 29 41 10 12 28 33 39 46 12 13 21 27 21 30 0 3
10 17 23 31 27 30 217 288 217 296 0 3 11 17 25 32 14 15 25 31 25 37 0 6 10
21 23 35 12 14 44 59 72 100 27 41 60 86 72 100 13 14 23 29 23 35 0 6 10 21
23 35 12 14 38 49 57 78 19 28 38 52 43 52 4 0 7 4 7 10 0 8 87 131 227 318
23 31 53 73 66 92 14 19 38 51 56 70 17 19 31 40 31 46 0 6 7 17 15 24 9 7 35
42 58 77 22 34 45 63 49 63 4 0 8 5 8 11 0 6 14 28 30 49 17 21 30 43 30 49 0
6 4 11 8 11 4 0 27 29 49 63 23 35 49 70 58 77 8 7 15 18 15 24 0 6 18 31 40
56 22 25 40 49 40 53 0 5 18 30 40 56 22 26 40 51 40 55 0 5 15 25 33 46 17
20 59 75 92 120 33 46 65 88 70 94 6 6 33 45 60 86 28 41 60 86 72 100 13 14
23 29 23 33 0 5 18 30 40 56 22 26 40 51 40 55 0 4 18 28 40 53 22 25 40 52
40 59 0 7 4 14 8 16 5 2 31 32 58 68 27 36 59 76 71 90 13 14 23 30 23 36 0 6
10 19 21 30 12 10 39 44 60 74 22 30 48 66 58 80 11 14 51 70 90 125 39 55 81
113 94 129 12 16 24 34 27 41 3 7 17 27 32 46 33 42 69 91 104 144 14 22 37
51 49 65 12 14 24 30 26 36 2 6 14 24 26 40 31 40 154 213 176 247 10 16 25
36 32 45 16 19 41 54 120 169 31 45 68 94 81 108 13 14 24 30 24 34 0 5 17 28
38 52 21 24 50 62 65 84 15 22 61 85 102 140 93 123 154 207 180 249 10 17 24
36 30 41 7 6 36 46 65 90 29 44 66 96 82 115 15 19 28 40 28 47 0 7 3 13 8 13
4 0 22 21 40 48 18 26 53 74 77 107 25 33 57 78 72 100 15 22 30 42 33 45 6 5
73 95 160 215 20 28 49 68 66 89 16 21 42 57 58 80 16 23 32 43 36 46 4 3 18
21 31 41 30 46 200 272 209 279 4 3 19 23 34 45 14 22 46 67 71 100 24 33 55
76 69 96 14 20 36 49 50 64 14 15 26 33 26 39 0 6 14 25 30 43 17 18 30 39 30
47 0 9 4 16 8 16 4 0 21 21 38 47 16 25 34 51 39 57 6 6 36 50 68 97 32 48 64
92 72 99 8 7 15 18 15 24 0 6 18 31 40 56 22 25 40 50 40 55 0 6 18 28 40 50
21 22 39 45 40 51 0 6 18 32 40 57 22 25 40 49 40 54 0 4 10 19 23 33 12 14
32 41 44 60 12 19 30 44 40 55 25 29 83 114 83 123 0 4 11 19 24 33 13 14 35
44 49 66 14 22 32 46 40 54 7 8 26 32 41 54 26 40 77 110 96 132 5 6 22 29 37
51 16 22 41 57 57 78 86 114 106 142 106 150 0 5 14 22 30 38 17 16 30 34 30
41 0 6 10 22 23 35 12 13 31 39 42 56 22 36 257 363 301 419 9 11 28 38 42 60
15 22 29 42 33 45 3 3 24 30 46 60 22 30 47 61 56 69 10 7 17 19 17 27 0 7 44
58 98 112 94 96 178 162 207 162 8 0 17 5 20 10 3 6 16 10 28 10 12 0 31 7 41
15 11 8 36 15 55 15 20 0 58 7 85 15 42 13 211 15 1214 15 1244 0 1228 1 1347
-49 49 -20 125 -93 125 -120 0 -11 5 -23 10 -26 21 -13 7 -99 -29 -180 -5 -11
-12 -27 -15 -35 -12 -28 -102 -167 -117 -180 -5 -5 -73 -105 -94 -138 -5 -9
-18 -25 -28 -36 -10 -12 -28 -37 -40 -56 -12 -19 -32 -46 -44 -60 -13 -14 -23
-29 -23 -33 0 -5 -18 -30 -40 -56 -22 -26 -40 -52 -40 -58 0 -5 -9 -18 -20
-28 -12 -11 -31 -36 -42 -57 -12 -21 -25 -38 -29 -38 -4 0 -21 -21 -38 -47
-17 -27 -52 -75 -76 -108 -25 -33 -57 -78 -71 -99 -15 -22 -37 -51 -50 -65
-13 -14 -24 -30 -24 -36 0 -5 -13 -25 -28 -42 -15 -18 -43 -56 -62 -83 -19
-28 -68 -96 -107 -151 -40 -54 -73 -102 -73 -104 0 -3 -11 -18 -25 -33 -14
-15 -25 -30 -25 -34 0 -4 -60 -88 -132 -188 -73 -99 -143 -194 -154 -210 -12
-16 -39 -50 -62 -77 -61 -73 -124 -153 -155 -198 -38 -56 -84 -117 -100 -135
-8 -8 -26 -33 -39 -55 -14 -22 -33 -46 -42 -54 -9 -7 -16 -19 -16 -25 0 -7
-15 -30 -33 -52 -28 -33 -59 -76 -146 -207 -8 -12 -43 -61 -78 -110 -35 -48
-63 -91 -63 -95 0 -5 -12 -19 -26 -33 -14 -13 -33 -37 -41 -54 -9 -16 -28 -44
-42 -62 -26 -31 -76 -101 -96 -132 -5 -9 -24 -32 -42 -53 -17 -20 -37 -47 -44
-60 -6 -12 -15 -25 -19 -28 -3 -3 -26 -32 -50 -65 -24 -33 -49 -67 -57 -75
-20 -22 -68 -87 -107 -145 -19 -28 -41 -57 -50 -64 -9 -7 -16 -19 -16 -25 0
-6 -18 -31 -40 -56 -22 -25 -40 -49 -40 -55 0 -5 -18 -30 -40 -55 -22 -25 -40
-49 -40 -53 0 -5 -18 -30 -40 -56 -22 -26 -40 -53 -40 -59 0 -7 -4 -12 -8 -12
-4 0 -25 -27 -46 -60 -21 -33 -42 -60 -47 -60 -5 0 -9 -4 -9 -10 0 -10 -126
-196 -165 -242 -7 -9 -22 -29 -31 -45 -10 -15 -30 -41 -44 -58 -42 -47 -210
-282 -210 -293 0 -5 -7 -12 -15 -16 -8 -3 -15 -15 -15 -26 0 -11 -4 -20 -8
-20 -5 0 -16 -19 -26 -42 -9 -24 -24 -58 -33 -76 -22 -44 -21 -241 1 -286 8
-17 22 -48 31 -68 8 -20 20 -40 25 -43 6 -3 10 -13 10 -21 0 -8 25 -49 55 -89
30 -41 55 -79 55 -84 0 -5 7 -15 17 -22 9 -8 31 -36 50 -64 60 -89 97 -140
120 -165 13 -14 23 -29 23 -35 0 -6 10 -21 23 -35 12 -14 45 -59 72 -100 28
-41 60 -86 73 -100 12 -14 22 -29 22 -35 0 -6 10 -21 23 -35 12 -14 37 -46 55
-73 17 -26 36 -53 42 -60 20 -24 75 -100 87 -121 7 -12 28 -39 48 -60 19 -22
35 -45 35 -51 0 -6 14 -24 30 -40 17 -16 30 -33 30 -38 0 -5 24 -41 53 -81 30
-39 62 -84 72 -101 11 -16 32 -45 48 -64 15 -18 32 -44 37 -57 5 -13 13 -24
18 -24 4 0 21 -23 37 -50 16 -27 33 -50 37 -50 4 0 19 -20 33 -44 14 -23 34
-51 45 -61 11 -10 20 -23 20 -28 0 -6 17 -31 38 -56 21 -25 47 -59 58 -76 10
-16 29 -41 41 -55 13 -14 23 -28 23 -31 0 -4 18 -29 40 -55 22 -27 40 -54 40
-61 0 -7 3 -13 8 -13 4 0 23 -24 42 -53 19 -28 40 -56 46 -62 6 -5 30 -39 54
-75 23 -36 59 -87 80 -115 20 -27 63 -86 95 -130 33 -44 63 -81 67 -83 4 -2 8
-8 8 -14 0 -5 34 -55 75 -111 41 -56 111 -151 155 -212 44 -60 89 -121 100
-135 11 -14 34 -45 52 -70 17 -25 38 -51 45 -58 7 -8 18 -23 25 -35 6 -12 29
-43 50 -68 21 -25 38 -50 38 -56 0 -6 4 -13 8 -15 8 -3 106 -129 155 -198 9
-14 37 -52 62 -85 24 -33 55 -76 69 -96 14 -20 36 -49 50 -64 14 -15 26 -33
26 -40 0 -7 7 -18 15 -25 9 -7 41 -52 72 -99 31 -47 59 -88 63 -91 4 -3 19
-23 33 -46 14 -22 31 -47 39 -55 7 -8 25 -32 40 -54 15 -22 38 -53 50 -70 12
-16 47 -64 77 -105 30 -41 58 -76 63 -78 4 -2 8 -9 8 -16 0 -6 17 -32 38 -58
48 -61 143 -195 160 -228 7 -14 20 -32 28 -41 8 -8 14 -20 14 -26 0 -6 7 -16
15 -23 8 -7 15 -22 15 -34 0 -12 6 -28 13 -34 7 -8 12 -41 12 -85 0 -75 -17
-128 -52 -159 -31 -28 -115 -68 -142 -68 -14 0 -44 -7 -66 -15 -61 -22 -2348
-22 -2421 0 -27 8 -63 15 -81 15 -18 0 -49 7 -70 16 -21 9 -49 21 -63 27 -14
5 -32 13 -40 18 -8 5 -25 13 -37 19 -56 24 -223 203 -330 354 -12 17 -26 36
-30 41 -5 6 -49 64 -98 130 -49 66 -92 122 -97 123 -4 2 -8 9 -8 15 0 6 -17
31 -38 56 -21 25 -45 57 -54 71 -8 14 -25 37 -36 50 -52 62 -110 138 -131 173
-12 20 -26 37 -30 37 -4 0 -17 17 -28 38 -12 20 -35 52 -52 71 -17 19 -31 39
-31 44 0 5 -13 26 -30 47 -16 21 -30 41 -30 44 0 4 -11 19 -25 34 -14 15 -25
30 -25 34 0 7 -113 168 -163 232 -12 16 -24 34 -26 39 -4 12 -6 14 -51 67 -16
19 -30 41 -30 48 0 6 -4 12 -8 12 -4 0 -27 28 -50 62 -70 103 -91 132 -111
153 -10 11 -25 34 -34 50 -9 17 -27 43 -41 59 -14 16 -26 32 -26 36 0 4 -18
26 -40 51 -22 24 -40 48 -40 52 0 5 -18 30 -40 56 -22 26 -40 51 -40 55 0 4
-17 28 -38 54 -20 26 -42 54 -47 63 -9 14 -116 159 -242 328 -80 106 -121 148
-186 186 -58 35 -67 37 -142 37 -62 -1 -90 -6 -125 -23 -47 -23 -152 -117
-179 -160 -9 -14 -31 -43 -49 -65 -36 -43 -91 -117 -107 -144 -6 -9 -25 -37
-43 -61 -18 -24 -48 -65 -67 -91 -19 -26 -35 -52 -35 -57 0 -6 -3 -11 -7 -11
-5 0 -24 -24 -43 -53 -19 -28 -38 -54 -41 -57 -3 -3 -18 -23 -32 -46 -14 -22
-31 -47 -39 -55 -23 -24 -125 -183 -132 -206 -4 -13 -12 -23 -17 -23 -5 0 -9
-10 -9 -22 -1 -13 -7 -34 -15 -48 -20 -35 -20 -185 0 -224 8 -15 15 -36 15
-46 0 -10 7 -23 15 -30 8 -7 15 -17 15 -22 0 -13 125 -202 145 -218 8 -7 15
-18 15 -24 0 -7 15 -30 33 -52 18 -21 52 -68 77 -104 24 -36 56 -81 72 -100
15 -19 28 -39 28 -45 0 -5 12 -21 25 -34 14 -13 32 -38 41 -57 9 -19 20 -34
24 -34 5 0 22 -21 39 -47 35 -54 127 -180 191 -264 42 -55 71 -95 87 -123 10
-16 29 -43 43 -60 14 -17 34 -44 45 -61 31 -51 231 -321 262 -355 13 -14 23
-29 23 -34 0 -4 11 -22 26 -40 45 -56 244 -337 244 -345 0 -5 7 -15 16 -22 9
-8 28 -31 42 -53 13 -22 35 -51 48 -65 13 -14 24 -30 24 -36 0 -5 18 -30 40
-54 22 -25 40 -50 40 -56 0 -7 7 -19 16 -26 9 -7 31 -36 50 -64 19 -27 50 -70
69 -95 19 -25 51 -67 70 -95 37 -53 88 -122 105 -142 5 -6 22 -29 37 -51 16
-22 40 -54 54 -73 14 -19 52 -70 84 -114 33 -44 62 -82 65 -85 4 -3 25 -30 47
-61 69 -94 228 -239 262 -239 5 0 22 -6 38 -14 54 -27 78 -35 128 -39 27 -3
51 -10 53 -16 3 -8 940 -11 3395 -11 2967 1 3394 2 3411 15 11 8 30 15 43 15
50 0 130 58 160 114 23 45 20 142 -6 199 -27 59 -83 148 -105 166 -9 7 -16 19
-16 25 0 6 -18 31 -40 56 -22 25 -40 50 -40 55 0 6 -11 22 -24 36 -13 14 -35
43 -48 65 -14 22 -33 45 -42 53 -9 7 -16 18 -16 24 0 6 -18 32 -40 58 -22 26
-40 51 -40 56 0 4 -12 21 -28 37 -15 16 -38 46 -52 67 -14 20 -52 72 -85 114
-33 43 -65 86 -71 97 -6 10 -23 33 -38 51 -33 39 -87 113 -102 139 -6 11 -21
30 -32 43 -12 14 -32 42 -46 63 -13 21 -30 45 -38 53 -17 19 -98 137 -98 143
0 8 -62 97 -87 126 -13 13 -23 29 -23 33 0 5 -18 30 -40 56 -22 26 -40 52 -40
58 0 5 -9 18 -20 28 -12 11 -31 36 -42 57 -12 21 -25 38 -29 38 -5 0 -20 20
-34 44 -14 23 -34 51 -45 61 -11 10 -20 23 -20 29 0 6 -16 31 -35 55 -19 24
-35 47 -35 51 0 3 -13 22 -30 40 -17 18 -30 38 -30 44 0 6 -18 31 -40 55 -22
25 -40 50 -40 56 0 7 -7 19 -16 26 -15 12 -108 131 -144 184 -8 12 -32 41 -52
66 -65 77 -122 151 -147 188 -13 19 -31 42 -39 50 -7 8 -25 32 -38 53 -14 21
-32 46 -40 56 -8 9 -34 46 -57 82 -23 36 -52 76 -65 90 -12 14 -22 28 -22 32
0 9 -44 70 -200 282 -63 86 -128 175 -145 199 -16 24 -38 52 -48 62 -10 10
-26 30 -35 44 -9 14 -31 44 -49 67 -18 23 -33 44 -33 49 0 4 -12 21 -26 39
-21 25 -131 180 -169 238 -28 41 -73 103 -97 133 -16 18 -28 37 -28 41 0 5
-18 29 -40 54 -22 25 -40 49 -40 53 0 5 -18 29 -40 54 -22 25 -40 51 -40 58 0
6 -12 22 -26 36 -14 13 -30 33 -34 44 -4 11 -30 49 -57 85 -27 36 -73 101
-103 145 -30 44 -58 82 -61 85 -3 3 -24 30 -46 61 -23 31 -47 62 -55 70 -7 8
-22 28 -32 44 -11 17 -37 51 -58 76 -21 25 -38 50 -38 56 0 6 -7 17 -17 24 -9
8 -34 39 -57 69 -22 30 -44 60 -48 65 -33 42 -228 317 -228 322 0 4 -10 17
-21 29 -12 13 -27 32 -33 43 -23 42 -155 224 -358 497 -37 51 -68 95 -68 98 0
3 -11 19 -24 34 -14 15 -63 81 -110 147 -46 66 -96 134 -110 151 -14 18 -26
36 -26 42 0 5 -6 15 -14 21 -8 7 -21 26 -30 44 -9 18 -20 39 -25 47 -24 45
-32 63 -42 102 -18 66 -22 168 -9 212 19 65 68 173 88 194 6 7 12 19 12 26 0
7 9 21 21 32 12 10 29 35 39 54 10 19 30 46 44 59 14 14 26 29 26 35 0 6 10
22 23 36 12 14 44 54 71 90 27 36 53 67 58 68 4 2 8 9 8 15 0 6 17 31 38 56
41 50 110 140 156 205 16 23 32 43 37 44 5 2 9 9 9 15 0 7 18 35 40 62 22 28
40 56 40 63 0 6 4 12 8 12 5 0 45 51 89 113 45 61 88 121 97 132 9 11 33 45
55 75 152 211 292 403 301 410 3 3 18 23 33 45 15 22 47 67 72 100 24 33 55
76 68 95 14 19 36 49 51 65 14 17 26 35 26 41 0 5 14 23 30 39 17 16 30 34 30
40 0 6 15 29 33 51 17 21 43 55 57 74 13 19 28 40 33 45 13 16 131 185 142
204 6 10 22 33 37 52 33 42 66 88 111 154 19 28 41 56 50 64 10 7 17 18 17 23
0 6 14 28 32 50 17 22 42 55 55 74 12 19 27 40 33 47 23 27 72 95 101 140 17
26 34 47 38 47 4 0 17 17 29 38 11 21 30 46 42 57 11 10 20 23 20 29 0 6 18
34 40 61 22 28 40 56 40 63 0 6 4 12 9 12 6 0 25 25 43 55 18 30 36 55 40 55
4 0 19 20 33 44 14 23 34 51 45 61 11 10 20 23 20 30 0 6 18 31 40 56 22 24
40 49 40 54 0 6 10 21 23 35 13 14 32 39 42 55 11 17 36 51 57 76 21 25 38 50
38 56 0 6 4 13 8 15 5 2 31 32 58 68 27 36 57 74 66 84 10 11 18 23 18 27 0 4
17 28 38 52 20 24 64 81 96 127 33 45 64 87 70 94 6 6 34 45 61 86 28 41 58
84 68 95 10 11 28 36 40 55 12 19 32 46 44 60 13 14 23 29 23 35 0 6 11 22 25
37 14 15 25 30 25 33 0 3 30 47 68 98 37 51 72 100 77 108 24 38 72 103 98
134 15 18 27 37 27 41 0 5 14 25 31 44 18 19 43 53 57 75 14 22 28 42 31 45 4
3 29 34 55 70 27 36 53 66 58 68 4 2 8 9 8 15 0 6 18 32 40 58 22 26 40 51 40
56 0 4 14 23 30 42 17 18 30 37 30 40 0 4 23 33 50 66 28 33 50 65 50 72 0 7
4 13 9 13 6 0 25 25 43 55 18 30 36 55 40 55 4 0 19 20 33 44 14 23 34 51 45
61 11 10 20 23 20 29 0 6 18 34 40 61 22 28 40 56 40 63 0 6 4 12 9 12 5 0 23
21 40 48 17 26 50 72 74 103 137 183 209 287 222 319 4 8 13 27 21 42 8 14 14
35 14 46 0 12 5 24 10 27 6 3 10 19 10 35 0 16 -4 32 -10 35 -5 3 -10 18 -10
32 0 47 -117 143 -174 143 -12 0 -34 7 -50 15 -25 13 -430 15 -3411 15 -2215
0 -3384 -3 -3387 -10 -2 -5 -25 -12 -53 -16 -50 -6 -75 -13 -128 -40 -16 -8
-33 -14 -37 -14 -31 0 -182 -133 -237 -209 -74 -101 -147 -196 -155 -199 -4
-2 -8 -8 -8 -13 0 -12 -110 -162 -127 -172 -7 -4 -13 -13 -13 -20 0 -7 -13
-28 -28 -47 -16 -19 -53 -71 -83 -115 -30 -44 -64 -91 -76 -105 -13 -13 -23
-30 -23 -36 0 -6 -7 -18 -16 -25 -9 -7 -31 -36 -50 -64 -48 -70 -82 -117 -102
-140 -9 -10 -28 -36 -42 -56 -27 -39 -84 -118 -98 -135 -19 -22 -169 -229
-224 -307 -31 -45 -63 -89 -71 -97 -8 -8 -26 -33 -40 -55 -15 -22 -44 -65 -66
-95 -22 -30 -51 -71 -65 -91 -13 -20 -31 -43 -39 -51 -9 -8 -24 -29 -34 -45
-10 -16 -31 -45 -46 -64 -45 -55 -102 -131 -152 -205 -26 -37 -60 -84 -76
-103 -16 -20 -29 -40 -29 -47 0 -6 -12 -21 -26 -35 -14 -13 -34 -40 -45 -61
-10 -20 -22 -38 -27 -40 -5 -1 -21 -21 -36 -43 -15 -22 -47 -67 -71 -100 -25
-33 -57 -78 -72 -100 -16 -22 -38 -51 -50 -65 -13 -14 -23 -28 -23 -31 0 -4
-18 -29 -40 -55 -22 -27 -40 -53 -40 -57 0 -5 -12 -23 -26 -41 -14 -17 -56
-76 -94 -131 -38 -55 -80 -114 -94 -131 -14 -18 -26 -35 -26 -39 0 -5 -19 -32
-43 -61 -23 -29 -56 -73 -74 -96 -18 -24 -48 -63 -67 -88 -20 -25 -51 -67 -71
-95 -19 -27 -51 -70 -70 -95 -19 -25 -51 -67 -70 -95 -34 -49 -87 -120 -103
-140 -39 -48 -122 -167 -122 -174 0 -5 -7 -15 -16 -22 -9 -7 -31 -36 -50 -64
-60 -87 -98 -139 -121 -165 -13 -14 -23 -30 -23 -36 0 -6 -7 -18 -16 -25 -9
-7 -31 -36 -50 -64 -67 -98 -99 -142 -116 -159 -10 -10 -18 -21 -18 -26 0 -5
-17 -29 -37 -54 -36 -42 -85 -109 -108 -145 -5 -9 -22 -32 -37 -52 -16 -20
-28 -41 -28 -46 0 -5 -11 -20 -25 -33 -14 -13 -25 -28 -25 -34 0 -6 -18 -33
-40 -61 -22 -27 -40 -56 -40 -62 0 -7 -4 -13 -9 -13 -5 0 -23 -21 -41 -47 -38
-60 -88 -127 -165 -228 -33 -43 -64 -85 -70 -94 -5 -9 -24 -33 -42 -53 -17
-20 -39 -50 -47 -66 -8 -15 -22 -34 -30 -41 -9 -7 -22 -26 -30 -41 -7 -16 -39
-62 -70 -103 -31 -41 -56 -77 -56 -80 0 -3 -32 -50 -70 -104 -69 -96 -84 -117
-138 -186 -15 -20 -67 -88 -116 -154 -49 -65 -96 -124 -103 -131 -7 -8 -20
-26 -27 -40 -8 -15 -23 -36 -35 -46 -12 -11 -21 -23 -21 -27 0 -5 -49 -76
-110 -159 -60 -83 -110 -154 -110 -159 0 -5 -4 -11 -8 -13 -5 -2 -40 -46 -78
-99 -75 -102 -90 -123 -159 -211 -25 -32 -45 -61 -45 -65 0 -5 -10 -19 -23
-33 -38 -41 -137 -177 -137 -187 0 -6 -9 -18 -20 -28 -12 -11 -52 -62 -90
-115 -38 -54 -83 -112 -100 -131 -16 -19 -30 -39 -30 -45 0 -5 -13 -23 -30
-39 -16 -16 -30 -34 -30 -40 0 -6 -18 -31 -40 -56 -22 -24 -40 -48 -40 -54 0
-5 -14 -25 -30 -44 -17 -18 -30 -37 -30 -41 0 -4 -16 -27 -35 -51 -19 -24 -35
-48 -35 -52 0 -4 -11 -20 -25 -35 -14 -15 -25 -31 -25 -37 0 -5 -13 -24 -28
-41 -15 -17 -48 -59 -74 -92 -74 -95 -181 -162 -261 -162 -71 0 -177 109 -177
183 0 12 -7 40 -15 62 -12 35 -14 479 -14 3240 0 2157 3 3215 10 3245 6 25 13
61 16 80 12 84 99 207 173 245 19 10 44 23 55 28 49 26 168 30 1010 36 685 5
895 9 912 19 12 6 39 12 60 12 22 0 48 7 59 15 10 8 26 15 35 15 9 0 44 14 79
32 73 36 233 189 298 284 22 33 49 68 61 78 11 11 21 24 21 30 0 6 11 23 24
37 13 14 35 43 50 65 14 21 46 66 69 99 24 33 69 98 102 145 32 47 62 87 67
88 4 2 8 9 8 16 0 7 18 34 40 59 22 25 40 49 40 54 0 4 11 20 24 34 13 14 35
43 48 65 14 21 35 48 47 58 11 11 21 24 21 29 0 6 11 25 25 43 14 18 25 38 25
44 0 6 7 18 15 26 8 9 15 24 15 34 0 10 5 22 10 25 6 3 10 38 10 76 0 56 -5
77 -24 108 -31 48 -114 101 -160 101 -19 0 -41 7 -50 15 -13 13 -281 15 -2294
15 -1604 0 -2281 -3 -2284 -11z"/>
</g>
</svg>
